# xmcd
# Copyright (C) 1995-1998 Ti Kan
#
# Track frame offsets:
#       182
#       22367
#       44862
#       61055
#       78675
#       103077
#       119790
#       140367
#       157615
#       172280
#
# Disc length: 2590 seconds
#
# Revision: 0
# Processed by: cddbd v1.5.2PL0 Copyright (c) Steve Scherf et al.
# Submitted via: CD-Import v1.0
#
DISCID=940a1c0a
DTITLE=Swell - Too Many Days Without Thinking
DYEAR=1997
DGENRE=
TTITLE0=Throw The Wine
TTITLE1=What I Always Wanted
TTITLE2=Make Mine You
TTITLE3=Fuck Even Flow
TTITLE4=At Lennie's
TTITLE5=When You Come Over
TTITLE6=(I Know) The Trip
TTITLE7=Going Up (To Portland)?
TTITLE8=Bridgette, You Love Me
TTITLE9=Sunshine Everyday
EXTD=
EXTT0=
EXTT1=
EXTT2=
EXTT3=
EXTT4=
EXTT5=
EXTT6=
EXTT7=
EXTT8=
EXTT9=
PLAYORDER=
